<?xml version="1.0" standalone="no"?>
<!DOCTYPE svg PUBLIC "-//W3C//DTD SVG 20010904//EN"
 "http://www.w3.org/TR/2001/REC-SVG-20010904/DTD/svg10.dtd">
<svg version="1.0" xmlns="http://www.w3.org/2000/svg"
 width="600.000000pt" height="600.000000pt" viewBox="0 0 600.000000 600.000000"
 preserveAspectRatio="xMidYMid meet">
<metadata>
Created by potrace 1.11, written by Peter Selinger 2001-2013
</metadata>
<g transform="translate(0.000000,600.000000) scale(0.100000,-0.100000)"
fill="#000000" stroke="none">
<path d="M118 5998 c0 -2 -2 -292 -3 -645 l-1 -643 60 -1 c34 0 228 -1 433 -1
269 0 373 -3 375 -12 3 -9 2 -749 -1 -796 -1 -13 -54 -15 -436 -15 l-435 0 0
-651 0 -651 418 -1 c229 0 426 -1 437 -1 20 -1 20 -8 19 -1273 0 -700 1 -1278
3 -1283 2 -7 272 -10 796 -9 435 1 795 2 800 3 4 0 7 577 7 1281 0 1017 3
1280 13 1281 6 0 743 1 1637 2 l1625 2 0 647 c0 433 -3 649 -10 651 -5 2 -742
3 -1637 3 l-1628 -1 0 413 0 412 1628 -1 c895 0 1634 0 1642 0 13 1 15 79 15
646 l0 645 -2877 0 c-1583 0 -2879 -1 -2880 -2z"/>
</g>
</svg>
